<svg width="192" height="192" viewBox="0 0 100 100" xmlns="http://www.w3.org/2000/svg">
    <defs>
        <!-- 
          优化点：降低饱和度 (柔和马卡龙色系)
          Green -> Blue -> Pink -> Yellow
        -->
        <linearGradient id="pastelGradient" x1="10%" y1="10%" x2="90%" y2="90%">
            <stop offset="0%" stop-color="#81C784" />   <!-- 柔和绿 -->
            <stop offset="35%" stop-color="#64B5F6" />   <!-- 柔和蓝 -->
            <stop offset="65%" stop-color="#F06292" />   <!-- 柔和粉 -->
            <stop offset="100%" stop-color="#FFF176" />  <!-- 柔和黄 -->
        </linearGradient>
        
        <filter id="softGlow" x="-20%" y="-20%" width="140%" height="140%">
            <feGaussianBlur stdDeviation="1.5" result="blur"/>
            <feComposite in="SourceGraphic" in2="blur" operator="over"/>
        </filter>
    </defs>
    <!-- 背景：透明 -->
    <!-- 背景线条组：普通分支 (浅灰色 #E0E0E0) -->
    <g stroke="#E0E0E0" stroke-width="1.5" fill="none" stroke-linecap="round" stroke-linejoin="round">
        <path d="M 50 12 L 35 22 L 35 85" />
        <path d="M 35 30 L 20 40 L 20 75" />
        <path d="M 65 30 L 80 40 L 80 80" />
        <path d="M 35 55 L 42 62 L 42 70" />
        <path d="M 65 55 L 58 62 L 58 68" />
    </g>
    <!-- 主线突出 (深灰色 #9E9E9E) -->
    <g stroke="#9E9E9E" stroke-width="1.5" fill="none" stroke-linecap="round" stroke-linejoin="round">
        <path d="M 50 -5 L 50 12" />
        <path d="M 50 12 L 65 22 L 65 105" />
    </g>
    <!-- 中央 AI 星星 (圆角 + 低饱和渐变) -->
    <path d="M 50 12 
             Q 53 47, 88 50 
             Q 53 53, 50 88 
             Q 47 53, 12 50 
             Q 47 47, 50 12 Z" 
          fill="url(#pastelGradient)" 
          stroke="url(#pastelGradient)"
          stroke-width="6" 
          stroke-linejoin="round"
          filter="url(#softGlow)" />
</svg>